<svg version="1.1" xmlns="http://www.w3.org/2000/svg" xmlns:xlink="http://www.w3.org/1999/xlink" width="340.27789" height="344.76442" viewBox="0,0,340.27789,344.76442"><defs><linearGradient x1="242.44127" y1="139.96817" x2="388.17615" y2="139.96817" gradientUnits="userSpaceOnUse" id="color-1"><stop offset="0" stop-color="#38ff00"/><stop offset="1" stop-color="#0079ff"/></linearGradient><linearGradient x1="247.82226" y1="247.49956" x2="377.80909" y2="247.49956" gradientUnits="userSpaceOnUse" id="color-2"><stop offset="0" stop-color="#38ff00"/><stop offset="1" stop-color="#0079ff"/></linearGradient><linearGradient x1="247.02966" y1="133.90279" x2="392.76454" y2="133.90279" gradientUnits="userSpaceOnUse" id="color-3"><stop offset="0" stop-color="#ff0000"/><stop offset="1" stop-color="#a600ff"/></linearGradient><linearGradient x1="252.41065" y1="241.43418" x2="382.39748" y2="241.43418" gradientUnits="userSpaceOnUse" id="color-4"><stop offset="0" stop-color="#ff0000"/><stop offset="1" stop-color="#a600ff"/></linearGradient><linearGradient x1="251.82385" y1="126.44516" x2="397.55873" y2="126.44516" gradientUnits="userSpaceOnUse" id="color-5"><stop offset="0" stop-color="#00ffff"/><stop offset="1" stop-color="#0075ff"/></linearGradient><linearGradient x1="257.20484" y1="233.97655" x2="387.19167" y2="233.97655" gradientUnits="userSpaceOnUse" id="color-6"><stop offset="0" stop-color="#00ffff"/><stop offset="1" stop-color="#0075ff"/></linearGradient><linearGradient x1="320" y1="15.86779" x2="320" y2="344.13221" gradientUnits="userSpaceOnUse" id="color-7"><stop offset="0" stop-color="#000000" stop-opacity="0"/><stop offset="1" stop-color="#000000" stop-opacity="0"/></linearGradient><linearGradient x1="158.11105" y1="180" x2="481.88895" y2="180" gradientUnits="userSpaceOnUse" id="color-8"><stop offset="0" stop-color="#000000"/><stop offset="1" stop-color="#1b00ff"/></linearGradient></defs><g transform="translate(-149.86105,-7.61779)"><g data-paper-data="{&quot;isPaintingLayer&quot;:true}" fill-rule="nonzero" stroke-linecap="butt" stroke-linejoin="miter" stroke-miterlimit="10" stroke-dasharray="" stroke-dashoffset="0" style="mix-blend-mode: normal"><g fill="#000000" stroke-width="9.5"><g><path d="M363.63734,88.87545c1.88956,0.75583 5.6687,2.70838 8.44006,4.28302c24.31241,14.23472 21.22612,37.28742 -10.20366,75.6456c-5.85766,7.24334 -20.78521,23.61956 -26.20197,28.91035l-2.83435,2.77137l-0.69284,-1.76359c-0.37792,-1.00777 -1.13374,-4.7869 -1.63763,-8.44006c-1.07075,-7.55826 -2.83435,-11.77829 -7.99916,-18.64371c-7.55826,-10.14067 -19.08461,-20.84821 -46.73525,-43.77493c-18.58072,-15.36846 -29.60319,-25.82406 -31.80768,-30.23304c-2.1415,-4.15704 -2.01553,-7.62125 0.31493,-10.07768c1.00777,-1.07076 2.51942,-2.07852 3.33823,-2.33047c1.00777,-0.25194 1.25971,-0.50388 0.75583,-0.81881c-2.01553,-1.19673 12.09322,-3.40122 28.02856,-4.34601c35.14592,-2.07852 67.96137,1.25971 87.23494,8.81798z" stroke="url(#color-1)"/><path d="M332.58549,200.92668c0.12597,0 1.25971,2.2045 2.64539,4.84989c3.21226,6.42452 10.07768,16.12429 19.84043,28.15453c11.46337,14.10876 17.69894,22.73776 20.34433,28.09153c2.14151,4.28301 2.39345,5.2278 2.39345,9.82574c0,4.53496 -0.18896,5.29078 -1.70061,7.24333c-4.59794,6.1096 -19.77745,10.39261 -45.28659,12.84905c-13.66785,1.25971 -47.11316,2.39346 -65.25299,2.07853c-13.85681,-0.18896 -15.30548,-0.31493 -16.5022,-1.38569c-1.63763,-1.44867 -1.63762,-3.08629 -0.12597,-6.36154c3.21226,-7.05438 12.59711,-16.9431 48.24691,-51.01826c13.85682,-13.28994 27.46168,-26.39093 30.23305,-29.22528c2.77136,-2.83435 5.10183,-5.10183 5.16481,-5.10183z" stroke="url(#color-2)"/></g><g><path d="M368.22573,82.81007c1.88957,0.75583 5.66869,2.70838 8.44006,4.28302c24.31241,14.23472 21.22612,37.28742 -10.20365,75.6456c-5.85766,7.24334 -20.78521,23.61956 -26.20197,28.91035l-2.83435,2.77137l-0.69284,-1.7636c-0.37791,-1.00777 -1.13374,-4.7869 -1.63762,-8.44006c-1.07076,-7.55826 -2.83435,-11.77829 -7.99916,-18.64371c-7.55826,-10.14067 -19.08461,-20.84821 -46.73525,-43.77493c-18.58072,-15.36846 -29.60319,-25.82406 -31.80768,-30.23305c-2.1415,-4.15704 -2.01553,-7.62125 0.31493,-10.07768c1.00777,-1.07076 2.51942,-2.07852 3.33823,-2.33047c1.00777,-0.25194 1.25971,-0.50388 0.75583,-0.81881c-2.01553,-1.19673 12.09322,-3.40122 28.02855,-4.346c35.14592,-2.07852 67.96137,1.25971 87.23494,8.81797z" stroke="url(#color-3)"/><path d="M337.17388,194.8613c0.12597,0 1.25971,2.2045 2.64539,4.84989c3.21226,6.42452 10.07768,16.12429 19.84044,28.15453c11.46337,14.10876 17.69893,22.73776 20.34432,28.09153c2.1415,4.28302 2.39345,5.2278 2.39345,9.82575c0,4.53496 -0.18896,5.29078 -1.70061,7.24333c-4.59794,6.1096 -19.77745,10.39261 -45.28658,12.84905c-13.66785,1.25971 -47.11316,2.39346 -65.25299,2.07853c-13.85682,-0.18896 -15.30548,-0.31493 -16.50221,-1.38569c-1.63762,-1.44867 -1.63762,-3.08629 -0.12597,-6.36154c3.21226,-7.05438 12.59711,-16.9431 48.2469,-51.01826c13.85681,-13.28994 27.46168,-26.39093 30.23305,-29.22528c2.77137,-2.83435 5.10183,-5.10182 5.16481,-5.10182z" stroke="url(#color-4)"/></g><g><path d="M373.01993,75.35243c1.88957,0.75583 5.66869,2.70838 8.44006,4.28302c24.31241,14.23472 21.22612,37.28742 -10.20365,75.6456c-5.85766,7.24334 -20.78521,23.61956 -26.20197,28.91035l-2.83435,2.77137l-0.69284,-1.76359c-0.37791,-1.00777 -1.13374,-4.7869 -1.63762,-8.44006c-1.07076,-7.55826 -2.83435,-11.77829 -7.99916,-18.64371c-7.55826,-10.14067 -19.08461,-20.84821 -46.73525,-43.77493c-18.58073,-15.36846 -29.60319,-25.82406 -31.80768,-30.23304c-2.1415,-4.15704 -2.01553,-7.62125 0.31493,-10.07768c1.00777,-1.07076 2.51942,-2.07852 3.33823,-2.33047c1.00777,-0.25194 1.25971,-0.50388 0.75583,-0.81881c-2.01554,-1.19673 12.09322,-3.40122 28.02855,-4.34601c35.14592,-2.07852 67.96137,1.25971 87.23494,8.81798z" stroke="url(#color-5)"/><path d="M341.96807,187.40366c0.12597,0 1.25971,2.2045 2.64539,4.84989c3.21226,6.42452 10.07768,16.12429 19.84044,28.15453c11.46337,14.10876 17.69893,22.73776 20.34432,28.09153c2.1415,4.28302 2.39345,5.2278 2.39345,9.82575c0,4.53496 -0.18896,5.29078 -1.70061,7.24333c-4.59794,6.1096 -19.77745,10.39261 -45.28658,12.84905c-13.66785,1.25971 -47.11316,2.39346 -65.25299,2.07853c-13.85681,-0.18896 -15.30548,-0.31493 -16.50221,-1.38569c-1.63763,-1.44867 -1.63762,-3.08629 -0.12597,-6.36154c3.21226,-7.05438 12.5971,-16.9431 48.2469,-51.01826c13.85681,-13.28994 27.46168,-26.39093 30.23305,-29.22528c2.77137,-2.83435 5.10183,-5.10183 5.16481,-5.10183z" stroke="url(#color-6)"/></g></g><path d="M481.88895,180c0,90.64772 -72.48015,164.13221 -161.88895,164.13221c-89.4088,0 -161.88895,-73.48449 -161.88895,-164.13221c0,-90.64772 72.48015,-164.13221 161.88895,-164.13221c89.4088,0 161.88895,73.48449 161.88895,164.13221z" fill="url(#color-7)" stroke="url(#color-8)" stroke-width="16.5"/></g></g></svg>